<svg width="185" height="177" viewBox="0 0 185 177" fill="none" xmlns="http://www.w3.org/2000/svg">
<path d="M4.6455 70.371L4.6535 70.6127H4.89536H38.0059H38.2559V70.3627C38.2559 65.8035 38.6601 61.2441 39.4688 56.6842C40.4381 51.9692 41.9715 47.7468 44.0669 44.0145L44.067 44.0146L44.0691 44.0106C46.1615 40.1218 48.8941 37.049 52.2659 34.786L52.2681 34.7845C55.7907 32.3666 60.0406 31.152 65.0299 31.152C72.438 31.152 78.4578 33.5004 83.1121 38.186L83.112 38.1861L83.1182 38.192C87.9253 42.7087 90.3432 49.09 90.3432 57.3725C90.3432 62.5609 89.1358 67.1727 86.7266 71.2151L86.7265 71.2151L86.7228 71.2216C84.4641 75.2822 81.5596 78.9377 78.008 82.1881L78.0079 82.1881L78.0038 82.1921C74.6078 85.4481 70.8065 88.461 66.5995 91.2305C62.3773 93.8463 58.3981 96.4625 54.662 99.079C47.3564 104.146 40.3754 109.131 33.7188 114.034L33.7164 114.036C27.2101 118.948 21.5155 124.353 16.6333 130.251C11.7461 135.992 7.83731 142.551 4.90644 149.927L4.90476 149.932C2.1326 157.319 0.75 166.01 0.75 176V176.25H1H126.138H126.388V176V146.098V145.848H126.138H46.042C50.1825 140.148 54.9408 135.15 60.3169 130.852C65.8287 126.446 71.5025 122.366 77.3382 118.612L77.3423 118.61C83.1858 114.688 88.9482 110.766 94.6295 106.844C100.486 102.913 105.693 98.5721 110.25 93.8201L110.253 93.817C114.817 88.8946 118.484 83.3158 121.254 77.0819C124.031 70.8333 125.415 63.3623 125.415 54.6765C125.415 46.3108 123.785 38.7573 120.521 32.0206C117.423 25.291 113.182 19.6248 107.798 15.0256C102.416 10.4288 96.1398 6.90079 88.9711 4.44035C81.9641 1.97969 74.5513 0.75 66.7342 0.75C56.4798 0.75 47.355 2.5525 39.3648 6.16387C31.5402 9.61034 25.0164 14.5355 19.7971 20.9388C14.5805 27.1756 10.6705 34.5583 8.06493 43.0831C5.45886 51.4461 4.32008 60.5428 4.6455 70.371ZM145.777 138.005H145.527V138.255V176V176.25H145.777H184H184.25V176V138.255V138.005H184H145.777Z" stroke="#D65D38" stroke-width="0.5"/>
</svg>
