<svg width="186" height="180" viewBox="0 0 186 180" fill="none" xmlns="http://www.w3.org/2000/svg">
<path d="M52.2326 73.469L51.9609 73.4452V73.718V98.2022V98.4522H52.2109C56.4303 98.4522 60.8127 98.6152 65.3582 98.9412L65.3582 98.9414L65.3674 98.9417C70.0541 99.104 74.3311 99.9964 78.201 101.616L78.2009 101.616L78.2094 101.619C82.0632 103.07 85.1925 105.488 87.602 108.875L87.6019 108.875L87.6065 108.882C90.1609 112.248 91.4565 117.164 91.4565 123.666C91.4565 131.931 88.7969 138.47 83.4939 143.312C78.1806 148 71.659 150.348 63.9133 150.348C58.9052 150.348 54.5559 149.456 50.8584 147.681C47.314 145.901 44.3362 143.556 41.9221 140.648C39.5054 137.573 37.6503 134.01 36.3587 129.957C35.0653 125.735 34.3375 121.35 34.1757 116.801L34.1671 116.56H33.9259H1.01283H0.766879L0.762865 116.806C0.59992 126.788 1.98477 135.635 4.9238 143.342L4.92552 143.346C8.02569 151.048 12.3516 157.607 17.9043 163.019L17.9071 163.022C23.4607 168.271 30.1553 172.288 37.9867 175.073L37.9882 175.074C45.9821 177.859 54.7872 179.25 64.4009 179.25C72.7151 179.25 80.705 178.022 88.3696 175.565C96.0361 173.108 102.809 169.503 108.686 164.749C114.566 159.992 119.221 154.087 122.649 147.037C126.244 139.979 128.039 131.942 128.039 122.931C128.039 113.089 125.343 104.628 119.942 97.5607C114.577 90.5394 107.193 85.9544 97.8077 83.8018V83.6996C105.733 81.3859 111.66 77.0432 115.567 70.6675C119.658 64.2578 121.7 56.8656 121.7 48.4993C121.7 40.7893 119.985 33.9709 116.546 28.0519C113.116 22.1463 108.624 17.1427 103.071 13.0421C97.6827 8.94268 91.5608 5.91008 84.7079 3.94339C77.8594 1.81485 71.0089 0.75 64.1571 0.75C55.353 0.75 47.3567 2.22355 40.1719 5.17498C32.9902 7.96193 26.7848 11.9795 21.5587 17.228L21.5587 17.228L21.5559 17.2308C16.4929 22.4795 12.4939 28.792 9.55737 36.1647L9.55631 36.1674C6.782 43.3787 5.23354 51.4046 4.90761 60.2425L4.89805 60.5017H5.15744H38.0704H38.3251L38.3204 60.2471C38.1587 51.4764 40.2608 44.2718 44.6075 38.6131C49.1022 32.81 55.6861 29.8965 64.4009 29.8965C70.6836 29.8965 76.2355 31.8363 81.0665 35.7176C85.8728 39.5791 88.2871 45.1325 88.2871 52.4168C88.2871 57.2721 87.079 61.1277 84.6877 64.0095L84.6876 64.0095L84.6824 64.0161C82.4356 66.9173 79.4645 69.1774 75.762 70.7945C72.2133 72.2521 68.3392 73.1442 64.1378 73.4688C59.9239 73.7943 55.9556 73.7941 52.2326 73.469ZM146.723 137.861H146.473V138.111V175.817V176.067H146.723H185H185.25V175.817V138.111V137.861H185H146.723Z" stroke="#D65D38" stroke-width="0.5"/>
</svg>
