<svg width="74" height="87" viewBox="0 0 74 87" fill="none" xmlns="http://www.w3.org/2000/svg">
<g clip-path="url(#clip0_869_1059)">
<path d="M13.9266 1.72781C14.1778 2.0404 14.3394 2.41541 14.394 2.81273C14.4486 3.21005 14.3942 3.61474 14.2365 3.98351C9.86983 14.222 11.1849 17.099 11.9547 17.862C13.0994 18.9988 16.0524 18.5521 18.6571 18.1579C22.1818 17.6255 26.1754 17.0222 28.4449 19.8559C30.774 22.7641 29.2354 26.7189 27.8793 30.1995C27.0485 32.3407 25.918 35.258 26.6482 36.1698C27.3785 37.0816 30.4803 36.6094 32.7439 36.2671C36.452 35.6972 40.6346 35.07 42.9612 37.975C45.2878 40.8801 43.7517 44.838 42.3956 48.3187C41.5626 50.4668 40.435 53.3845 41.1652 54.2963C41.8955 55.2081 44.9973 54.7359 47.2609 54.3936C50.969 53.8237 55.1517 53.1964 57.4782 56.1015C59.7477 58.9352 58.2864 62.7005 56.9968 66.0238C56.0463 68.4899 54.9614 71.2692 55.8207 72.6346C56.3942 73.5522 58.9157 75.4656 69.8624 73.44C70.4408 73.334 71.0377 73.4621 71.5217 73.7961C72.0058 74.1302 72.3373 74.6428 72.4433 75.2213C72.5493 75.7997 72.4212 76.3966 72.0872 76.8807C71.7531 77.3647 71.2405 77.6962 70.662 77.8022C65.876 78.6836 62.1068 78.9563 59.1439 78.6301C55.7171 78.2512 53.3447 77.0277 52.0666 74.9931C50.0292 71.7471 51.5336 67.8536 52.8637 64.425C53.678 62.3282 54.6922 59.7174 54.0191 58.877C53.2876 57.9636 50.1842 58.4371 47.919 58.7806C44.2205 59.3429 40.0283 59.9778 37.7017 57.0727C35.3751 54.1677 36.9124 50.2113 38.2673 46.7291C39.0987 44.5952 40.2374 41.6687 39.5059 40.7553C38.7744 39.8419 35.6634 40.3059 33.402 40.6542C29.7035 41.2164 25.5125 41.8529 23.1847 38.9463C20.8568 36.0396 22.3954 32.0849 23.7503 28.6026C24.5804 26.4672 25.7204 23.5422 24.9889 22.6288C24.3158 21.7884 21.5465 22.2077 19.3226 22.5443C15.6836 23.09 11.5606 23.7138 8.83308 21.0101C7.12838 19.317 6.44739 16.7312 6.83265 13.3123C7.15724 10.3507 8.24707 6.72928 10.1544 2.25016C10.3029 1.89564 10.5412 1.58593 10.8458 1.35153C11.1504 1.11713 11.5108 0.966131 11.8916 0.913411C12.2723 0.860691 12.6602 0.908067 13.017 1.05087C13.3739 1.19368 13.6873 1.42699 13.9266 1.72781Z" fill="#D45D38"/>
</g>
<defs>
<clipPath id="clip0_869_1059">
<rect width="16.0699" height="97.3233" fill="white" transform="translate(0 10.0459) rotate(-38.6903)"/>
</clipPath>
</defs>
</svg>
