<svg width="70" height="70" viewBox="0 0 70 70" fill="none" xmlns="http://www.w3.org/2000/svg">
<path d="M43.4761 26.143H43.8701V26.5238V26.5895V36.1486L43.1741 36.1749L42.4651 36.1486L42.4519 28.5459L27.1284 43.8695L26.1436 42.8716L41.4671 27.548H33.8644V26.1299L43.4105 26.143" fill="#353535"/>
<path d="M35.007 69.9995C28.0823 70.0021 21.3123 67.9508 15.5535 64.1053C9.79466 60.2597 5.30574 54.7925 2.65455 48.3954C0.00335754 41.9983 -0.690996 34.9585 0.659322 28.1667C2.00964 21.3749 5.34396 15.1361 10.2405 10.2395C15.1371 5.34298 21.3758 2.00866 28.1677 0.658345C34.9595 -0.691972 41.9992 0.00238097 48.3964 2.65357C54.7935 5.30476 60.2607 9.79368 64.1063 15.5525C67.9518 21.3113 70.003 28.0813 70.0005 35.006C69.99 44.2837 66.2999 53.1783 59.7396 59.7386C53.1793 66.2989 44.2846 69.989 35.007 69.9995ZM35.007 0.248956C28.1322 0.246359 21.4109 2.28262 15.6934 6.1002C9.97594 9.91777 5.51899 15.3452 2.8863 21.696C0.253603 28.0468 -0.436577 35.0357 0.90305 41.7788C2.24268 48.5218 5.55193 54.7162 10.4123 59.5784C15.2726 64.4405 21.4657 67.7521 28.2083 69.0943C34.9509 70.4365 41.94 69.7489 48.2918 67.1186C54.6436 64.4883 60.0727 60.0335 63.8924 54.3174C67.7122 48.6013 69.751 41.8809 69.751 35.006C69.7371 25.7944 66.0725 16.9639 59.5602 10.449C53.0478 3.93421 44.2186 0.26632 35.007 0.248956Z" fill="#353535"/>
</svg>
