<svg width="73" height="71" viewBox="0 0 73 71" fill="none" xmlns="http://www.w3.org/2000/svg">
<path d="M13.7358 39.7327V30.8687H16.2958C16.9998 30.8687 17.5918 30.97 18.0718 31.1727C18.5518 31.3647 18.9411 31.6527 19.2398 32.0367C19.5491 32.41 19.7678 32.8687 19.8958 33.4127C20.0344 33.946 20.1038 34.554 20.1038 35.2367C20.1038 35.9407 20.0291 36.5434 19.8798 37.0447C19.7411 37.5354 19.5598 37.946 19.3358 38.2767C19.1118 38.6074 18.8558 38.8687 18.5678 39.0607C18.2904 39.2527 18.0078 39.402 17.7198 39.5087C17.4318 39.6047 17.1598 39.6687 16.9038 39.7007C16.6478 39.722 16.4344 39.7327 16.2638 39.7327H13.7358ZM12.2158 29.5887V41.0127H16.1358C17.0851 41.0127 17.9064 40.8794 18.5998 40.6127C19.2931 40.346 19.8638 39.962 20.3118 39.4607C20.7598 38.9487 21.0904 38.3247 21.3038 37.5887C21.5171 36.842 21.6238 35.9887 21.6238 35.0287C21.6238 33.194 21.1491 31.8287 20.1998 30.9327C19.2504 30.0367 17.8958 29.5887 16.1358 29.5887H12.2158ZM30.5854 40.9807C30.3507 41.1194 30.0254 41.1887 29.6094 41.1887C29.2574 41.1887 28.9747 41.0927 28.7614 40.9007C28.5587 40.698 28.4574 40.3727 28.4574 39.9247C28.0841 40.3727 27.6467 40.698 27.1454 40.9007C26.6547 41.0927 26.1214 41.1887 25.5454 41.1887C25.1721 41.1887 24.8147 41.146 24.4734 41.0607C24.1427 40.9754 23.8547 40.842 23.6094 40.6607C23.3641 40.4794 23.1667 40.2447 23.0174 39.9567C22.8787 39.658 22.8094 39.3007 22.8094 38.8847C22.8094 38.4154 22.8894 38.0314 23.0494 37.7327C23.2094 37.434 23.4174 37.194 23.6734 37.0127C23.9401 36.8207 24.2387 36.6767 24.5694 36.5807C24.9107 36.4847 25.2574 36.4047 25.6094 36.3407C25.9827 36.266 26.3347 36.2127 26.6654 36.1807C27.0067 36.138 27.3054 36.0847 27.5614 36.0207C27.8174 35.946 28.0201 35.8447 28.1694 35.7167C28.3187 35.578 28.3934 35.3807 28.3934 35.1247C28.3934 34.826 28.3347 34.586 28.2174 34.4047C28.1107 34.2234 27.9667 34.0847 27.7854 33.9887C27.6147 33.8927 27.4174 33.8287 27.1934 33.7967C26.9801 33.7647 26.7667 33.7487 26.5534 33.7487C25.9774 33.7487 25.4974 33.8607 25.1134 34.0847C24.7294 34.298 24.5214 34.7087 24.4894 35.3167H23.1294C23.1507 34.8047 23.2574 34.3727 23.4494 34.0207C23.6414 33.6687 23.8974 33.386 24.2174 33.1727C24.5374 32.9487 24.9001 32.7887 25.3054 32.6927C25.7214 32.5967 26.1641 32.5487 26.6334 32.5487C27.0067 32.5487 27.3747 32.5754 27.7374 32.6287C28.1107 32.682 28.4467 32.794 28.7454 32.9647C29.0441 33.1247 29.2841 33.354 29.4654 33.6527C29.6467 33.9514 29.7374 34.3407 29.7374 34.8207V39.0767C29.7374 39.3967 29.7534 39.6314 29.7854 39.7807C29.8281 39.93 29.9561 40.0047 30.1694 40.0047C30.2867 40.0047 30.4254 39.978 30.5854 39.9247V40.9807ZM28.3774 36.7407C28.2067 36.8687 27.9827 36.9647 27.7054 37.0287C27.4281 37.082 27.1347 37.13 26.8254 37.1727C26.5267 37.2047 26.2227 37.2474 25.9134 37.3007C25.6041 37.3434 25.3267 37.418 25.0814 37.5247C24.8361 37.6314 24.6334 37.786 24.4734 37.9887C24.3241 38.1807 24.2494 38.4474 24.2494 38.7887C24.2494 39.0127 24.2921 39.2047 24.3774 39.3647C24.4734 39.514 24.5907 39.6367 24.7294 39.7327C24.8787 39.8287 25.0494 39.898 25.2414 39.9407C25.4334 39.9834 25.6361 40.0047 25.8494 40.0047C26.2974 40.0047 26.6814 39.946 27.0014 39.8287C27.3214 39.7007 27.5827 39.546 27.7854 39.3647C27.9881 39.1727 28.1374 38.97 28.2334 38.7567C28.3294 38.5327 28.3774 38.3247 28.3774 38.1327V36.7407ZM33.7391 32.7407V30.2607H32.3791V32.7407H30.9711V33.9407H32.3791V39.2047C32.3791 39.5887 32.4165 39.898 32.4911 40.1327C32.5658 40.3674 32.6778 40.5487 32.8271 40.6767C32.9871 40.8047 33.1898 40.8954 33.4351 40.9487C33.6911 40.9914 33.9951 41.0127 34.3471 41.0127H35.3871V39.8127H34.7631C34.5498 39.8127 34.3738 39.8074 34.2351 39.7967C34.1071 39.7754 34.0058 39.738 33.9311 39.6847C33.8565 39.6314 33.8031 39.5567 33.7711 39.4607C33.7498 39.3647 33.7391 39.2367 33.7391 39.0767V33.9407H35.3871V32.7407H33.7391ZM42.642 36.0847H37.89C37.9114 35.7647 37.9807 35.466 38.098 35.1887C38.2154 34.9007 38.3754 34.65 38.578 34.4367C38.7807 34.2234 39.0207 34.058 39.298 33.9407C39.586 33.8127 39.906 33.7487 40.258 33.7487C40.5994 33.7487 40.9087 33.8127 41.186 33.9407C41.474 34.058 41.7194 34.2234 41.922 34.4367C42.1354 34.6394 42.3007 34.8847 42.418 35.1727C42.546 35.4607 42.6207 35.7647 42.642 36.0847ZM43.954 38.3887H42.61C42.4927 38.9327 42.2474 39.338 41.874 39.6047C41.5114 39.8714 41.042 40.0047 40.466 40.0047C40.018 40.0047 39.6287 39.93 39.298 39.7807C38.9674 39.6314 38.6954 39.434 38.482 39.1887C38.2687 38.9327 38.114 38.6447 38.018 38.3247C37.922 37.994 37.8794 37.6474 37.89 37.2847H44.082C44.1034 36.7834 44.0554 36.2554 43.938 35.7007C43.8314 35.146 43.6287 34.634 43.33 34.1647C43.042 33.6954 42.6527 33.3114 42.162 33.0127C41.682 32.7034 41.074 32.5487 40.338 32.5487C39.7727 32.5487 39.25 32.6554 38.77 32.8687C38.3007 33.082 37.89 33.3807 37.538 33.7647C37.1967 34.1487 36.93 34.602 36.738 35.1247C36.546 35.6474 36.45 36.2234 36.45 36.8527C36.4714 37.482 36.562 38.0634 36.722 38.5967C36.8927 39.13 37.1434 39.5887 37.474 39.9727C37.8047 40.3567 38.21 40.6554 38.69 40.8687C39.1807 41.082 39.7567 41.1887 40.418 41.1887C41.3567 41.1887 42.1354 40.954 42.754 40.4847C43.3727 40.0154 43.7727 39.3167 43.954 38.3887Z" fill="#353535"/>
<path d="M56.9031 41.0127L51.0924 31.2627L62.7139 31.2627L56.9031 41.0127Z" fill="#353535"/>
<path d="M36.7944 70.0258C29.6463 70.0284 22.6579 67.9772 16.7133 64.1316C10.7687 60.2861 6.13502 54.8189 3.3983 48.4218C0.66159 42.0246 -0.0551615 34.9849 1.33871 28.1931C2.73259 21.4012 6.17447 15.1624 11.229 10.2659C16.2835 5.36935 22.7235 2.03503 29.7344 0.684712C36.7453 -0.665605 44.0122 0.0287482 50.6157 2.67994C57.2192 5.33113 62.8627 9.82005 66.8323 15.5789C70.8019 21.3377 72.9193 28.1076 72.9167 35.0324C72.9059 44.31 69.0967 53.2047 62.3248 59.765C55.5529 66.3253 46.3713 70.0154 36.7944 70.0258V70.0258ZM36.7944 0.275324C29.6978 0.272726 22.7597 2.30899 16.8578 6.12656C10.9559 9.94414 6.35515 15.3715 3.63753 21.7223C0.919908 28.0731 0.207464 35.062 1.5903 41.8051C2.97314 48.5482 6.38915 54.7425 11.4063 59.6047C16.4234 64.4669 22.8163 67.7785 29.7764 69.1207C36.7364 70.4628 43.951 69.7753 50.5077 67.145C57.0644 64.5147 62.6686 60.0598 66.6116 54.3438C70.5546 48.6277 72.6591 41.9073 72.6591 35.0324C72.6448 25.8208 68.862 16.9902 62.1396 10.4754C55.4171 3.96058 46.3032 0.292687 36.7944 0.275324V0.275324Z" fill="#353535"/>
</svg>
