<svg xmlns="http://www.w3.org/2000/svg" viewBox="0 0 53.51 53.51"><defs><style>.cls-1{fill:#353535;}</style></defs><g id="Calque_2" data-name="Calque 2"><g id="Calque_1-2" data-name="Calque 1"><path class="cls-1" d="M28.26,1.5A26.76,26.76,0,1,0,55,28.26,26.78,26.78,0,0,0,28.26,1.5Zm0,53.31A26.56,26.56,0,1,1,54.81,28.26,26.58,26.58,0,0,1,28.26,54.81Z" transform="translate(-1.5 -1.5)"/><path class="cls-1" d="M32.91,25.44a.65.65,0,0,1,.65.65v.53a3.84,3.84,0,0,0-1.22-1.11l-.14-.07h.71m-9.66.11a2.67,2.67,0,0,0-.07.64v4.24a3,3,0,0,0,0,.52.66.66,0,0,1-.27-.53V26.09a.63.63,0,0,1,.3-.54m10.31,4.74v.13a.65.65,0,0,1-.65.65h-.15a3.29,3.29,0,0,0,.8-.78m-.65-7.85H23.6A3.65,3.65,0,0,0,20,26.09v4.33a3.64,3.64,0,0,0,3.65,3.65h9.31a3.65,3.65,0,0,0,3.65-3.65V26.09a3.66,3.66,0,0,0-3.65-3.65Zm-6.18,8.24c-.23,0-.55-.11-.55-.25V26.19c0-.15.33-.25.55-.25a.4.4,0,0,1,.17,0l4,2.18c.17.09.35.34.18.43L26.9,30.65a.4.4,0,0,1-.17,0Z" transform="translate(-1.5 -1.5)"/><path class="cls-1" d="M32.91,25.44a.65.65,0,0,1,.65.65v.53a3.84,3.84,0,0,0-1.22-1.11l-.14-.07h.71m-9.66.11a2.67,2.67,0,0,0-.07.64v4.24a3,3,0,0,0,0,.52.66.66,0,0,1-.27-.53V26.09a.63.63,0,0,1,.3-.54m10.31,4.74v.13a.65.65,0,0,1-.65.65h-.15a3.29,3.29,0,0,0,.8-.78m-.65-7.85H23.6A3.65,3.65,0,0,0,20,26.09v4.33a3.64,3.64,0,0,0,3.65,3.65h9.31a3.65,3.65,0,0,0,3.65-3.65V26.09a3.66,3.66,0,0,0-3.65-3.65Zm-6.18,8.24c-.23,0-.55-.11-.55-.25V26.19c0-.15.33-.25.55-.25a.4.4,0,0,1,.17,0l4,2.18c.17.09.35.34.18.43L26.9,30.65a.4.4,0,0,1-.17,0Z" transform="translate(-1.5 -1.5)"/></g></g></svg>