<svg xmlns="http://www.w3.org/2000/svg" viewBox="0 0 53.51 53.51"><defs><style>.cls-1{fill:#d65d38;}</style></defs><g id="Calque_2" data-name="Calque 2"><g id="Calque_1-2" data-name="Calque 1"><path class="cls-1" d="M26.76,53.51A26.76,26.76,0,1,1,53.51,26.76,26.78,26.78,0,0,1,26.76,53.51ZM26.76.2A26.56,26.56,0,1,0,53.31,26.76,26.58,26.58,0,0,0,26.76.2Z"/><path class="cls-1" d="M28.86,21v2.84h4.21l-.67,4.39H28.86v10.6a14.88,14.88,0,0,1-4.74,0V28.18H20.27V23.79h3.85V20.45c0-3.8,2.26-5.91,5.73-5.91a22.92,22.92,0,0,1,3.39.3v3.73H31.33A2.2,2.2,0,0,0,28.86,21Z"/></g></g></svg>