<svg xmlns="http://www.w3.org/2000/svg" viewBox="0 0 53.51 53.51"><defs><style>.cls-1{fill:#d65d38;}</style></defs><g id="Calque_2" data-name="Calque 2"><g id="Calque_1-2" data-name="Calque 1"><path class="cls-1" d="M26.76,53.51A26.76,26.76,0,1,1,53.51,26.76,26.78,26.78,0,0,1,26.76,53.51ZM26.76.2A26.56,26.56,0,1,0,53.31,26.76,26.58,26.58,0,0,0,26.76.2Z"/><path class="cls-1" d="M35,21.58h0a.43.43,0,0,1-.09.27,6.6,6.6,0,0,1-1.32,1.37c-.07.06-.2.12-.2.22a10.19,10.19,0,0,1-2.69,7.44A10,10,0,0,1,21,33.17a9,9,0,0,1-1.88-.76,6,6,0,0,1-.59-.34c-.05,0-.08-.08,0-.1s.07,0,.22,0a6.76,6.76,0,0,0,2.82-.36,4.47,4.47,0,0,0,1.85-1l0,0c-.12,0-.25,0-.37-.06a3.62,3.62,0,0,1-2.71-2.27c0-.09,0-.14.09-.12a3.79,3.79,0,0,0,1.29,0,1.53,1.53,0,0,1-.43-.13,3.51,3.51,0,0,1-2.16-2.78,1.85,1.85,0,0,1,0-.4c0-.09,0-.12.13-.07a3.44,3.44,0,0,0,1.31.37,4.83,4.83,0,0,1-.42-.37,3.46,3.46,0,0,1-.59-4.08c.07-.1.11-.1.19,0a10.55,10.55,0,0,0,6.82,3.47c.07,0,.08,0,.07-.08a3.77,3.77,0,0,1,0-1.42A3.6,3.6,0,0,1,29.85,20a3.38,3.38,0,0,1,2.43.83,1,1,0,0,1,.17.18.17.17,0,0,0,.14,0,8.43,8.43,0,0,0,2-.76.08.08,0,0,1,.08,0s0,.05,0,.08a3.39,3.39,0,0,1-.56,1c-.15.19-.55.68-.82.72A6.38,6.38,0,0,0,35,21.58C35,21.55,35,21.53,35,21.58Z"/><path class="cls-1" d="M35,21.58h0a.43.43,0,0,1-.09.27,6.6,6.6,0,0,1-1.32,1.37c-.07.06-.2.12-.2.22a10.19,10.19,0,0,1-2.69,7.44A10,10,0,0,1,21,33.17a9,9,0,0,1-1.88-.76,6,6,0,0,1-.59-.34c-.05,0-.08-.08,0-.1s.07,0,.22,0a6.76,6.76,0,0,0,2.82-.36,4.47,4.47,0,0,0,1.85-1l0,0c-.12,0-.25,0-.37-.06a3.62,3.62,0,0,1-2.71-2.27c0-.09,0-.14.09-.12a3.79,3.79,0,0,0,1.29,0,1.53,1.53,0,0,1-.43-.13,3.51,3.51,0,0,1-2.16-2.78,1.85,1.85,0,0,1,0-.4c0-.09,0-.12.13-.07a3.44,3.44,0,0,0,1.31.37,4.83,4.83,0,0,1-.42-.37,3.46,3.46,0,0,1-.59-4.08c.07-.1.11-.1.19,0a10.55,10.55,0,0,0,6.82,3.47c.07,0,.08,0,.07-.08a3.77,3.77,0,0,1,0-1.42A3.6,3.6,0,0,1,29.85,20a3.38,3.38,0,0,1,2.43.83,1,1,0,0,1,.17.18.17.17,0,0,0,.14,0,8.43,8.43,0,0,0,2-.76.08.08,0,0,1,.08,0s0,.05,0,.08a3.39,3.39,0,0,1-.56,1c-.15.19-.55.68-.82.72A6.38,6.38,0,0,0,35,21.58C35,21.55,35,21.53,35,21.58Z"/></g></g></svg>