<svg xmlns="http://www.w3.org/2000/svg" viewBox="0 0 91.19 91.19"><defs><style>.cls-1{fill:#d65d38;}</style></defs><g id="Calque_2" data-name="Calque 2"><g id="Calque_1-2" data-name="Calque 1"><path class="cls-1" d="M45.59,91.19a45.6,45.6,0,1,1,45.6-45.6A45.64,45.64,0,0,1,45.59,91.19Zm0-90.86A45.27,45.27,0,1,0,90.86,45.59,45.32,45.32,0,0,0,45.59.33Z"/><polyline class="cls-1" points="69.12 49.95 69.47 50.3 69.12 50.65 69.05 50.72 60.25 59.53 59.6 58.9 58.95 58.23 65.96 51.22 21.72 51.22 21.72 49.38 65.96 49.38 58.97 42.38 60.27 41.08 69.06 49.88"/><rect class="cls-1" x="21.72" y="49.39" width="44.17" height="1.84"/><path class="cls-1" d="M28.09,33.49a3.18,3.18,0,0,0-1.94-.55,4.23,4.23,0,0,0-.94.1,2.44,2.44,0,0,0-.83.32,1.64,1.64,0,0,0-.57.6,1.78,1.78,0,0,0-.22.93,1.2,1.2,0,0,0,.31.86,2.24,2.24,0,0,0,.83.53,6.87,6.87,0,0,0,1.18.35l1.34.29c.45.11.89.24,1.33.38a4.47,4.47,0,0,1,1.18.58,3,3,0,0,1,.83.93,2.88,2.88,0,0,1,.31,1.41,2.79,2.79,0,0,1-.41,1.56,3.51,3.51,0,0,1-1,1.06,4.6,4.6,0,0,1-1.44.59,7,7,0,0,1-1.57.18,6.72,6.72,0,0,1-1.82-.24,4.37,4.37,0,0,1-1.5-.73,3.46,3.46,0,0,1-1-1.24,4,4,0,0,1-.37-1.8h1.44a2.55,2.55,0,0,0,.28,1.24,2.5,2.5,0,0,0,.73.85,3.1,3.1,0,0,0,1.07.5,4.71,4.71,0,0,0,1.25.16,5.21,5.21,0,0,0,1-.1,2.78,2.78,0,0,0,.93-.33,1.79,1.79,0,0,0,.68-.63,1.86,1.86,0,0,0,.25-1,1.4,1.4,0,0,0-.31-1,2.17,2.17,0,0,0-.83-.6,6.05,6.05,0,0,0-1.18-.38L25.73,38c-.46-.11-.9-.22-1.34-.36a5.08,5.08,0,0,1-1.18-.52,2.59,2.59,0,0,1-.83-.85A2.49,2.49,0,0,1,22.07,35a3.07,3.07,0,0,1,.35-1.49,3.13,3.13,0,0,1,.94-1,4.15,4.15,0,0,1,1.33-.61,5.92,5.92,0,0,1,1.52-.2,6.14,6.14,0,0,1,1.64.21,3.88,3.88,0,0,1,1.32.65,3.2,3.2,0,0,1,.89,1.13,4,4,0,0,1,.36,1.63H29A2.35,2.35,0,0,0,28.09,33.49Z"/><path class="cls-1" d="M34,31.93V38.7l3.77-3.62h1.83l-3.28,3,3.52,5.27H38.07L35.24,39,34,40.22v3.14H32.6V31.93Z"/><path class="cls-1" d="M40.9,33.6V31.93h1.36V33.6Zm1.36,1.48v8.28H40.9V35.08Z"/><path class="cls-1" d="M45.78,35.08V36.2h0a2.11,2.11,0,0,1,1.06-1,4.08,4.08,0,0,1,1.58-.31,3.85,3.85,0,0,1,1.68.35,3.47,3.47,0,0,1,1.18,1A4.3,4.3,0,0,1,52,37.58a5.65,5.65,0,0,1,.24,1.66A6,6,0,0,1,52,40.91a4,4,0,0,1-.7,1.37,3.4,3.4,0,0,1-1.19.92,3.86,3.86,0,0,1-1.65.33,4.27,4.27,0,0,1-.68-.06,3.35,3.35,0,0,1-.75-.21,3.14,3.14,0,0,1-.69-.39,2.22,2.22,0,0,1-.56-.62h0v4.26H44.42V35.08ZM50.67,38a3.06,3.06,0,0,0-.46-1,2.32,2.32,0,0,0-.8-.69,2.47,2.47,0,0,0-1.15-.26,2.21,2.21,0,0,0-1.95,1,2.93,2.93,0,0,0-.44,1,4.79,4.79,0,0,0-.14,1.13,4.6,4.6,0,0,0,.15,1.18,2.94,2.94,0,0,0,.45,1,2.26,2.26,0,0,0,.81.69,2.47,2.47,0,0,0,1.2.27,2.37,2.37,0,0,0,1.18-.27,2.28,2.28,0,0,0,.76-.72,3,3,0,0,0,.41-1,5.14,5.14,0,0,0,.13-1.18A4.28,4.28,0,0,0,50.67,38Z"/></g></g></svg>