<svg xmlns="http://www.w3.org/2000/svg" viewBox="0 0 53.51 53.51"><defs><style>.cls-1{fill:#d65d38;}</style></defs><g id="Calque_2" data-name="Calque 2"><g id="Calque_1-2" data-name="Calque 1"><path class="cls-1" d="M26.76,53.51A26.76,26.76,0,1,1,53.51,26.76,26.78,26.78,0,0,1,26.76,53.51ZM26.76.2A26.56,26.56,0,1,0,53.31,26.76,26.58,26.58,0,0,0,26.76.2Z"/><path class="cls-1" d="M26.83,22.38a4.38,4.38,0,1,0,4.38,4.38A4.38,4.38,0,0,0,26.83,22.38Zm0,7.18a2.81,2.81,0,1,1,2.8-2.8A2.81,2.81,0,0,1,26.83,29.56Z"/><path class="cls-1" d="M32.51,22.08a1,1,0,1,1-1-1A1,1,0,0,1,32.51,22.08Z"/><path class="cls-1" d="M30.31,17.86H23.2a5.35,5.35,0,0,0-5.34,5.34v7.11a5.35,5.35,0,0,0,5.34,5.34h7.11a5.35,5.35,0,0,0,5.34-5.34V23.2A5.35,5.35,0,0,0,30.31,17.86ZM34,30.31A3.68,3.68,0,0,1,30.31,34H23.2a3.68,3.68,0,0,1-3.67-3.67V23.2a3.68,3.68,0,0,1,3.67-3.67h7.11A3.68,3.68,0,0,1,34,23.2Z"/><path class="cls-1" d="M32.51,22.08a1,1,0,1,1-1-1A1,1,0,0,1,32.51,22.08Z"/><path class="cls-1" d="M26.83,22.38a4.38,4.38,0,1,0,4.38,4.38A4.38,4.38,0,0,0,26.83,22.38Zm0,7.18a2.81,2.81,0,1,1,2.8-2.8A2.81,2.81,0,0,1,26.83,29.56Z"/><path class="cls-1" d="M30.31,17.86H23.2a5.35,5.35,0,0,0-5.34,5.34v7.11a5.35,5.35,0,0,0,5.34,5.34h7.11a5.35,5.35,0,0,0,5.34-5.34V23.2A5.35,5.35,0,0,0,30.31,17.86ZM34,30.31A3.68,3.68,0,0,1,30.31,34H23.2a3.68,3.68,0,0,1-3.67-3.67V23.2a3.68,3.68,0,0,1,3.67-3.67h7.11A3.68,3.68,0,0,1,34,23.2Z"/></g></g></svg>