<svg xmlns="http://www.w3.org/2000/svg" viewBox="0 0 53.51 53.51"><defs><style>.cls-1{fill:#d65d38;}</style></defs><g id="Calque_2" data-name="Calque 2"><g id="Calque_1-2" data-name="Calque 1"><path class="cls-1" d="M26.76,53.51A26.76,26.76,0,1,1,53.51,26.76,26.78,26.78,0,0,1,26.76,53.51ZM26.76.2A26.56,26.56,0,1,0,53.31,26.76,26.58,26.58,0,0,0,26.76.2Z"/><path class="cls-1" d="M31.41,20.94H22.1a3.65,3.65,0,0,0-3.65,3.65v4.33a3.64,3.64,0,0,0,3.65,3.65h9.31a3.65,3.65,0,0,0,3.65-3.65V24.59A3.66,3.66,0,0,0,31.41,20.94Zm-1.83,6.14L25.4,29.15c-.17.09-.72,0-.72-.22V24.69c0-.19.56-.31.72-.22l4,2.18C29.57,26.74,29.75,27,29.58,27.08Z"/><path class="cls-1" d="M31.41,20.94H22.1a3.65,3.65,0,0,0-3.65,3.65v4.33a3.64,3.64,0,0,0,3.65,3.65h9.31a3.65,3.65,0,0,0,3.65-3.65V24.59A3.66,3.66,0,0,0,31.41,20.94Zm-1.83,6.14L25.4,29.15c-.17.09-.72,0-.72-.22V24.69c0-.19.56-.31.72-.22l4,2.18C29.57,26.74,29.75,27,29.58,27.08Z"/></g></g></svg>