<svg xmlns="http://www.w3.org/2000/svg" viewBox="0 0 104.22 27.12"><defs><style>.cls-1{fill:#353535;}</style></defs><g id="Calque_2" data-name="Calque 2"><g id="Calque_1-2" data-name="Calque 1"><polygon class="cls-1" points="104.22 10.79 104.22 13.04 93.44 13.04 93.44 23.82 91.19 23.82 91.19 13.04 80.4 13.04 80.4 10.79 91.19 10.79 91.19 0 93.44 0 93.44 10.79 104.22 10.79"/><path class="cls-1" d="M53.13,1.65V0h.61V1.65Zm0,9.77V3.2h.61v8.22Z"/><path class="cls-1" d="M0,0H7.68V.61H.7V5.18H7.26v.61H.7v5H7.76v.6H0Z"/><path class="cls-1" d="M8.85,3.2h.61V5h0a2.61,2.61,0,0,1,.45-.82,3.13,3.13,0,0,1,.69-.62,2.89,2.89,0,0,1,.86-.38A3.33,3.33,0,0,1,12.43,3a4,4,0,0,1,1.23.17,2.49,2.49,0,0,1,.82.47,2.22,2.22,0,0,1,.5.65,3,3,0,0,1,.27.72,4.72,4.72,0,0,1,.09.72c0,.23,0,.43,0,.6v5.08h-.61V6.22a5.85,5.85,0,0,0-.05-.76,2.21,2.21,0,0,0-.28-.89,2,2,0,0,0-.7-.73,2.41,2.41,0,0,0-1.3-.3,2.91,2.91,0,0,0-1.25.25,2.81,2.81,0,0,0-.93.71,3.08,3.08,0,0,0-.58,1.09A4.36,4.36,0,0,0,9.46,7v4.44H8.85Z"/><path class="cls-1" d="M21.89,8.69a2.42,2.42,0,0,0,.84,1.77,2.65,2.65,0,0,0,.84.47,3.44,3.44,0,0,0,1,.16,6.48,6.48,0,0,0,.85-.07,2.92,2.92,0,0,0,.85-.27,1.77,1.77,0,0,0,.65-.53,1.44,1.44,0,0,0,.26-.88,1.3,1.3,0,0,0-.42-1,3.06,3.06,0,0,0-1.05-.54,10.09,10.09,0,0,0-1.36-.31A7.13,7.13,0,0,1,23,7.09,2.85,2.85,0,0,1,22,6.41a1.85,1.85,0,0,1-.41-1.29,1.82,1.82,0,0,1,.27-1,2,2,0,0,1,.7-.64,3.16,3.16,0,0,1,.95-.35A5.33,5.33,0,0,1,24.54,3a5.06,5.06,0,0,1,1.2.14,2.51,2.51,0,0,1,1,.47,2.14,2.14,0,0,1,.64.81,2.73,2.73,0,0,1,.23,1.2H27a2.19,2.19,0,0,0-.19-1A1.72,1.72,0,0,0,26.28,4a2.33,2.33,0,0,0-.78-.36,3.6,3.6,0,0,0-1-.12,4.11,4.11,0,0,0-.84.08,2.37,2.37,0,0,0-.76.27,1.85,1.85,0,0,0-.55.49,1.29,1.29,0,0,0-.21.74,1.25,1.25,0,0,0,.24.8,1.73,1.73,0,0,0,.63.49,4.13,4.13,0,0,0,.88.29l1,.23a11.5,11.5,0,0,1,1.15.26,3.11,3.11,0,0,1,.92.42,1.76,1.76,0,0,1,.62.68,2.21,2.21,0,0,1,.22,1.05,1.91,1.91,0,0,1-.3,1.11,2.22,2.22,0,0,1-.77.69,3.16,3.16,0,0,1-1,.37,6.14,6.14,0,0,1-1.11.11,4.55,4.55,0,0,1-1.31-.19,2.82,2.82,0,0,1-1-.56,2.68,2.68,0,0,1-.71-.92,3.08,3.08,0,0,1-.27-1.26Z"/><path class="cls-1" d="M34.75,9.79h0a2.66,2.66,0,0,1-.42.7,2.86,2.86,0,0,1-.66.58,3.14,3.14,0,0,1-.89.4,3.73,3.73,0,0,1-1.09.15,3.2,3.2,0,0,1-2-.57,2.09,2.09,0,0,1-.72-1.75,2.06,2.06,0,0,1,1-1.9,3.17,3.17,0,0,1,1-.38c.36-.07.7-.12,1-.16l.94-.08a5.31,5.31,0,0,0,1-.15,1.27,1.27,0,0,0,.57-.29.79.79,0,0,0,.24-.47,4.67,4.67,0,0,0,.05-.72,1.6,1.6,0,0,0-.13-.62,1.48,1.48,0,0,0-.4-.51,2.1,2.1,0,0,0-.7-.36,4,4,0,0,0-1.06-.12,2.76,2.76,0,0,0-1.78.54A2.12,2.12,0,0,0,30,5.73h-.61a2.71,2.71,0,0,1,.88-2A3.4,3.4,0,0,1,32.51,3a3.29,3.29,0,0,1,2.17.58,1.93,1.93,0,0,1,.68,1.53V9.9c0,.12,0,.24,0,.36a1.13,1.13,0,0,0,.05.32.63.63,0,0,0,.16.23.51.51,0,0,0,.32.09,3.2,3.2,0,0,0,.45-.05v.51a2,2,0,0,1-.49.06,1.59,1.59,0,0,1-.59-.09.87.87,0,0,1-.33-.26,1,1,0,0,1-.15-.37,2.45,2.45,0,0,1,0-.48Zm0-3a1.13,1.13,0,0,1-.68.37,8.8,8.8,0,0,1-1,.14l-1,.1a8.68,8.68,0,0,0-.89.14,2.37,2.37,0,0,0-.81.29,1.69,1.69,0,0,0-.59.57,1.74,1.74,0,0,0-.22.94,1.59,1.59,0,0,0,.58,1.35,2.56,2.56,0,0,0,1.58.44,3.15,3.15,0,0,0,1.65-.38,3.11,3.11,0,0,0,.93-.86,2.73,2.73,0,0,0,.4-.95,3.94,3.94,0,0,0,.09-.61Z"/><path class="cls-1" d="M40.43,11.42h-.75L36.37,3.2h.7l3,7.52h0L42.86,3.2h.68Z"/><path class="cls-1" d="M44,7.31a5.53,5.53,0,0,1,.25-1.65A4.19,4.19,0,0,1,45,4.29a3.49,3.49,0,0,1,1.18-.94,4,4,0,0,1,3.24,0,3.39,3.39,0,0,1,1.18.94,4.19,4.19,0,0,1,.73,1.37,5.53,5.53,0,0,1,.25,1.65A5.72,5.72,0,0,1,51.32,9a4.14,4.14,0,0,1-.73,1.36,3.48,3.48,0,0,1-1.18.93,3.92,3.92,0,0,1-3.24,0A3.58,3.58,0,0,1,45,10.34,4.14,4.14,0,0,1,44.26,9,5.72,5.72,0,0,1,44,7.31Zm.61,0a4.83,4.83,0,0,0,.21,1.42,3.94,3.94,0,0,0,.61,1.21,3.08,3.08,0,0,0,1,.84,3,3,0,0,0,1.36.31,3,3,0,0,0,1.36-.31,2.88,2.88,0,0,0,1-.84,3.94,3.94,0,0,0,.61-1.21A4.83,4.83,0,0,0,51,7.31a4.72,4.72,0,0,0-.21-1.41,3.73,3.73,0,0,0-.61-1.21,2.88,2.88,0,0,0-1-.84,3.14,3.14,0,0,0-2.72,0,3.08,3.08,0,0,0-1,.84,3.73,3.73,0,0,0-.61,1.21A4.72,4.72,0,0,0,44.62,7.31Z"/><path class="cls-1" d="M56.29,5h0a2.14,2.14,0,0,1,.41-.75,3.06,3.06,0,0,1,.72-.61,3.65,3.65,0,0,1,.95-.39,3.81,3.81,0,0,1,1.08-.12v.61a2.89,2.89,0,0,0-1.1.1,2.66,2.66,0,0,0-1.18.7,5,5,0,0,0-.39.46,2.69,2.69,0,0,0-.28.5,3.16,3.16,0,0,0-.17.61,4.4,4.4,0,0,0-.08.8v4.49h-.61V3.2h.61Z"/><path class="cls-1" d="M48.85,17.84h0a2.87,2.87,0,0,1,.32-.67,2.7,2.7,0,0,1,.59-.68,3.11,3.11,0,0,1,.89-.52,3.21,3.21,0,0,1,1.2-.21,3.64,3.64,0,0,1,1.64.35,3.34,3.34,0,0,1,1.16.94,4.24,4.24,0,0,1,.68,1.38,5.93,5.93,0,0,1,.22,1.65,6.3,6.3,0,0,1-.22,1.73,3.9,3.9,0,0,1-.68,1.35,3.22,3.22,0,0,1-1.16.89,3.93,3.93,0,0,1-1.64.32,3.65,3.65,0,0,1-1.83-.45,2.67,2.67,0,0,1-1.17-1.46h0v4.66h-.59V16h.59Zm3,6a2.91,2.91,0,0,0,1.39-.31,2.7,2.7,0,0,0,1-.81,3.53,3.53,0,0,0,.56-1.19A5.7,5.7,0,0,0,55,20.08a5.47,5.47,0,0,0-.18-1.39,3.81,3.81,0,0,0-.55-1.21,2.74,2.74,0,0,0-1-.87,3,3,0,0,0-1.42-.32,2.79,2.79,0,0,0-1.4.32,2.68,2.68,0,0,0-.93.84A3.57,3.57,0,0,0,49,18.66a6.64,6.64,0,0,0-.16,1.42A6.48,6.48,0,0,0,49,21.49a3.23,3.23,0,0,0,.49,1.2,2.52,2.52,0,0,0,.93.84A3.14,3.14,0,0,0,51.88,23.84Z"/><path class="cls-1" d="M57.76,12.75V24.17h-.61V12.75Z"/><path class="cls-1" d="M66.21,24.17H65.6V22.41h0a2.69,2.69,0,0,1-.46.83,3.08,3.08,0,0,1-.69.61,3.13,3.13,0,0,1-.85.39,3.82,3.82,0,0,1-1,.13,3.65,3.65,0,0,1-1.22-.18,2.38,2.38,0,0,1-.82-.46,2.22,2.22,0,0,1-.51-.65,2.9,2.9,0,0,1-.26-.73,3.67,3.67,0,0,1-.1-.71c0-.23,0-.43,0-.6V16h.6v5.2c0,.21,0,.47.05.78a2.44,2.44,0,0,0,.28.88,2.09,2.09,0,0,0,.7.72,2.31,2.31,0,0,0,1.31.31,2.93,2.93,0,0,0,1.24-.26,2.75,2.75,0,0,0,.94-.71,3.16,3.16,0,0,0,.58-1.09,4.65,4.65,0,0,0,.2-1.38V16h.61Z"/><path class="cls-1" d="M68.29,21.44a2.42,2.42,0,0,0,.84,1.77,2.65,2.65,0,0,0,.84.47,3.44,3.44,0,0,0,1,.16,6.63,6.63,0,0,0,.85-.07,2.92,2.92,0,0,0,.85-.27,1.77,1.77,0,0,0,.65-.53,1.44,1.44,0,0,0,.26-.88,1.3,1.3,0,0,0-.42-1,3.06,3.06,0,0,0-1-.54,10.09,10.09,0,0,0-1.36-.31,7.13,7.13,0,0,1-1.36-.36,2.85,2.85,0,0,1-1.05-.68A1.83,1.83,0,0,1,68,17.87a1.82,1.82,0,0,1,.27-1,2,2,0,0,1,.7-.64,3.16,3.16,0,0,1,1-.35,5.33,5.33,0,0,1,1-.1,5.06,5.06,0,0,1,1.2.14,2.51,2.51,0,0,1,1,.47,2.14,2.14,0,0,1,.64.81,2.73,2.73,0,0,1,.23,1.2h-.6a2.35,2.35,0,0,0-.19-1,1.72,1.72,0,0,0-.51-.65,2.33,2.33,0,0,0-.78-.36,3.66,3.66,0,0,0-1-.12,4.11,4.11,0,0,0-.84.08,2.37,2.37,0,0,0-.76.27,1.85,1.85,0,0,0-.55.49,1.29,1.29,0,0,0-.21.74,1.25,1.25,0,0,0,.24.8,1.73,1.73,0,0,0,.63.49,4.13,4.13,0,0,0,.88.29l1,.23a11.5,11.5,0,0,1,1.15.26,3.11,3.11,0,0,1,.92.42A1.85,1.85,0,0,1,74,21a2.21,2.21,0,0,1,.22,1.05,1.91,1.91,0,0,1-.3,1.11,2.22,2.22,0,0,1-.77.69,3.16,3.16,0,0,1-1,.37,6.14,6.14,0,0,1-1.11.11,4.55,4.55,0,0,1-1.31-.19,2.82,2.82,0,0,1-1-.56A2.68,2.68,0,0,1,68,22.7a3.07,3.07,0,0,1-.27-1.26Z"/></g></g></svg>