<svg xmlns="http://www.w3.org/2000/svg" viewBox="0 0 53.51 53.51"><defs><style>.cls-1{fill:#d65d38;}</style></defs><g id="Calque_2" data-name="Calque 2"><g id="Calque_1-2" data-name="Calque 1"><path class="cls-1" d="M26.76,53.51A26.76,26.76,0,1,1,53.51,26.76,26.78,26.78,0,0,1,26.76,53.51ZM26.76.2A26.56,26.56,0,1,0,53.31,26.76,26.58,26.58,0,0,0,26.76.2Z"/><path class="cls-1" d="M34.88,21.78v3.16h0a3.71,3.71,0,0,1-.47,0,5.08,5.08,0,0,1-4.24-2.3v7.81a5.77,5.77,0,1,1-5.77-5.77l.36,0v2.84c-.13,0-.24,0-.36,0a2.95,2.95,0,1,0,0,5.89,3,3,0,0,0,3.06-2.91l0-13.26h2.72A5.06,5.06,0,0,0,34.88,21.78Z"/></g></g></svg>