<svg xmlns="http://www.w3.org/2000/svg" viewBox="0 0 53.51 53.51"><defs><style>.cls-1{fill:#353535;}</style></defs><g id="Calque_2" data-name="Calque 2"><g id="Calque_1-2" data-name="Calque 1"><path class="cls-1" d="M28.26,1.5A26.76,26.76,0,1,0,55,28.26,26.78,26.78,0,0,0,28.26,1.5Zm0,53.31A26.56,26.56,0,1,1,54.81,28.26,26.58,26.58,0,0,1,28.26,54.81Z" transform="translate(-1.5 -1.5)"/><path class="cls-1" d="M31.35,16c-3.47,0-5.73,2.11-5.73,5.91v3.34H21.77v4.39h3.85v10.6a14.88,14.88,0,0,0,4.74,0V29.68H33.9l.67-4.39H30.36V22.45a2.2,2.2,0,0,1,2.47-2.38h1.91V16.34a22.92,22.92,0,0,0-3.39-.3Z" transform="translate(-1.5 -1.5)"/></g></g></svg>