<svg xmlns="http://www.w3.org/2000/svg" viewBox="0 0 53.51 53.51"><defs><style>.cls-1{fill:#353535;}</style></defs><g id="Calque_2" data-name="Calque 2"><g id="Calque_1-2" data-name="Calque 1"><path class="cls-1" d="M28.26,1.5A26.76,26.76,0,1,0,55,28.26,26.78,26.78,0,0,0,28.26,1.5Zm0,53.31A26.56,26.56,0,1,1,54.81,28.26,26.58,26.58,0,0,1,28.26,54.81Z" transform="translate(-1.5 -1.5)"/><path class="cls-1" d="M31.71,18.76H29L29,32a3,3,0,0,1-3.06,2.91,2.95,2.95,0,1,1,0-5.89c.12,0,.23,0,.36,0V26.23l-.36,0A5.77,5.77,0,1,0,31.67,32V24.17a5.08,5.08,0,0,0,4.24,2.3,3.71,3.71,0,0,0,.47,0h0V23.28a5.06,5.06,0,0,1-4.67-4.52Z" transform="translate(-1.5 -1.5)"/></g></g></svg>