<svg xmlns="http://www.w3.org/2000/svg" viewBox="0 0 53.51 53.51"><defs><style>.cls-1{fill:#353535;}</style></defs><g id="Calque_2" data-name="Calque 2"><g id="Calque_1-2" data-name="Calque 1"><path class="cls-1" d="M28.26,1.5A26.76,26.76,0,1,0,55,28.26,26.78,26.78,0,0,0,28.26,1.5Zm0,53.31A26.56,26.56,0,1,1,54.81,28.26,26.58,26.58,0,0,1,28.26,54.81Z" transform="translate(-1.5 -1.5)"/><path class="cls-1" d="M28.33,23.88a4.38,4.38,0,1,0,4.38,4.38,4.38,4.38,0,0,0-4.38-4.38Zm0,7.18a2.81,2.81,0,1,1,2.8-2.8,2.81,2.81,0,0,1-2.8,2.8Z" transform="translate(-1.5 -1.5)"/><path class="cls-1" d="M33,22.54a1,1,0,1,0,1,1,1,1,0,0,0-1-1Z" transform="translate(-1.5 -1.5)"/><path class="cls-1" d="M31.81,19.36H24.7a5.35,5.35,0,0,0-5.34,5.34v7.11a5.35,5.35,0,0,0,5.34,5.34h7.11a5.35,5.35,0,0,0,5.34-5.34V24.7a5.35,5.35,0,0,0-5.34-5.34ZM24.7,35.48A3.68,3.68,0,0,1,21,31.81V24.7A3.68,3.68,0,0,1,24.7,21h7.11a3.68,3.68,0,0,1,3.67,3.67v7.11a3.68,3.68,0,0,1-3.67,3.67Z" transform="translate(-1.5 -1.5)"/><path class="cls-1" d="M33,22.54a1,1,0,1,0,1,1,1,1,0,0,0-1-1Z" transform="translate(-1.5 -1.5)"/><path class="cls-1" d="M28.33,23.88a4.38,4.38,0,1,0,4.38,4.38,4.38,4.38,0,0,0-4.38-4.38Zm0,7.18a2.81,2.81,0,1,1,2.8-2.8,2.81,2.81,0,0,1-2.8,2.8Z" transform="translate(-1.5 -1.5)"/><path class="cls-1" d="M31.81,19.36H24.7a5.35,5.35,0,0,0-5.34,5.34v7.11a5.35,5.35,0,0,0,5.34,5.34h7.11a5.35,5.35,0,0,0,5.34-5.34V24.7a5.35,5.35,0,0,0-5.34-5.34ZM24.7,35.48A3.68,3.68,0,0,1,21,31.81V24.7A3.68,3.68,0,0,1,24.7,21h7.11a3.68,3.68,0,0,1,3.67,3.67v7.11a3.68,3.68,0,0,1-3.67,3.67Z" transform="translate(-1.5 -1.5)"/></g></g></svg>