<svg xmlns="http://www.w3.org/2000/svg" viewBox="0 0 53.31 53.31"><defs><style>.cls-1{fill:#353535;}</style></defs><g id="Calque_2" data-name="Calque 2"><g id="Calque_1-2" data-name="Calque 1"><polyline class="cls-1" points="35.73 26.45 35.94 26.65 35.73 26.86 35.69 26.9 30.55 32.05 30.16 31.68 29.79 31.29 33.88 27.19 17.38 27.19 17.38 26.12 33.89 26.12 29.8 22.02 30.56 21.27 35.7 26.41"/><path class="cls-1" d="M53.31,26.66A26.66,26.66,0,1,1,26.66,0,26.67,26.67,0,0,1,53.31,26.66Zm-53.12,0A26.47,26.47,0,1,0,26.66.19,26.5,26.5,0,0,0,.19,26.66Z"/></g></g></svg>