<svg xmlns="http://www.w3.org/2000/svg" viewBox="0 0 53.51 53.51"><defs><style>.cls-1{fill:#353535;}</style></defs><g id="Calque_2" data-name="Calque 2"><g id="Calque_1-2" data-name="Calque 1"><path class="cls-1" d="M28.26,1.5A26.76,26.76,0,1,0,55,28.26,26.78,26.78,0,0,0,28.26,1.5Zm0,53.31A26.56,26.56,0,1,1,54.81,28.26,26.58,26.58,0,0,1,28.26,54.81Z" transform="translate(-1.5 -1.5)"/><path class="cls-1" d="M31.57,24.44l.13,0,.05,0,0,0,.14.13c0,.11,0,.21,0,.28a9.81,9.81,0,0,1-.39,2.89l-1.22-.19.05-.06a3.08,3.08,0,0,0,.72-2.48,1.19,1.19,0,0,1,0-.28h0a.46.46,0,0,1,.09-.19.7.7,0,0,1,.19-.15.76.76,0,0,1,.2-.06h0m0-3h-.22a3.42,3.42,0,0,0-1.4.4,3.55,3.55,0,0,0-1.81,2.27,3.77,3.77,0,0,0,0,1.42c0,.07,0,.09,0,.09h0a10.55,10.55,0,0,1-6.82-3.47s-.07-.06-.1-.06-.05,0-.09.07a3.46,3.46,0,0,0,.59,4.08c.14.13.28.26.42.37h0a3.58,3.58,0,0,1-1.3-.37l-.06,0s-.06,0-.06.09a1.73,1.73,0,0,0,0,.39,3.51,3.51,0,0,0,2.16,2.79,1.53,1.53,0,0,0,.43.13,2.64,2.64,0,0,1-.66.07l-.63,0h0c-.06,0-.08,0-.05.12a3.62,3.62,0,0,0,2.71,2.27c.12,0,.25,0,.37.06s0,0,0,0a4.47,4.47,0,0,1-1.85,1,6.85,6.85,0,0,1-2.24.39l-.58,0-.15,0-.07,0s0,.06,0,.1a6,6,0,0,0,.59.34,9,9,0,0,0,1.88.76,11.25,11.25,0,0,0,2.93.4,9.55,9.55,0,0,0,6.79-2.68A10.19,10.19,0,0,0,34.92,25c0-.1.13-.16.2-.22a6.6,6.6,0,0,0,1.32-1.37.43.43,0,0,0,.09-.27h0s0,0,0,0l-.06,0a6.38,6.38,0,0,1-1.67.47h0c.27,0,.67-.53.82-.72a3.39,3.39,0,0,0,.56-1s0-.06,0-.08h-.08a8.43,8.43,0,0,1-2,.76h0a.18.18,0,0,1-.1,0,1,1,0,0,0-.17-.18,3.41,3.41,0,0,0-2.21-.84Z" transform="translate(-1.5 -1.5)"/><path class="cls-1" d="M31.57,24.44l.13,0,.05,0,0,0,.14.13c0,.11,0,.21,0,.28a9.81,9.81,0,0,1-.39,2.89l-1.22-.19.05-.06a3.08,3.08,0,0,0,.72-2.48,1.19,1.19,0,0,1,0-.28h0a.46.46,0,0,1,.09-.19.7.7,0,0,1,.19-.15.76.76,0,0,1,.2-.06h0m0-3h-.22a3.42,3.42,0,0,0-1.4.4,3.55,3.55,0,0,0-1.81,2.27,3.77,3.77,0,0,0,0,1.42c0,.07,0,.09,0,.09h0a10.55,10.55,0,0,1-6.82-3.47s-.07-.06-.1-.06-.05,0-.09.07a3.46,3.46,0,0,0,.59,4.08c.14.13.28.26.42.37h0a3.58,3.58,0,0,1-1.3-.37l-.06,0s-.06,0-.06.09a1.73,1.73,0,0,0,0,.39,3.51,3.51,0,0,0,2.16,2.79,1.53,1.53,0,0,0,.43.13,2.64,2.64,0,0,1-.66.07l-.63,0h0c-.06,0-.08,0-.05.12a3.62,3.62,0,0,0,2.71,2.27c.12,0,.25,0,.37.06s0,0,0,0a4.47,4.47,0,0,1-1.85,1,6.85,6.85,0,0,1-2.24.39l-.58,0-.15,0-.07,0s0,.06,0,.1a6,6,0,0,0,.59.34,9,9,0,0,0,1.88.76,11.25,11.25,0,0,0,2.93.4,9.55,9.55,0,0,0,6.79-2.68A10.19,10.19,0,0,0,34.92,25c0-.1.13-.16.2-.22a6.6,6.6,0,0,0,1.32-1.37.43.43,0,0,0,.09-.27h0s0,0,0,0l-.06,0a6.38,6.38,0,0,1-1.67.47h0c.27,0,.67-.53.82-.72a3.39,3.39,0,0,0,.56-1s0-.06,0-.08h-.08a8.43,8.43,0,0,1-2,.76h0a.18.18,0,0,1-.1,0,1,1,0,0,0-.17-.18,3.41,3.41,0,0,0-2.21-.84Z" transform="translate(-1.5 -1.5)"/></g></g></svg>