<svg xmlns="http://www.w3.org/2000/svg" viewBox="0 0 53.31 53.31"><defs><style>.cls-1{fill:#353535;}</style></defs><g id="Calque_2" data-name="Calque 2"><g id="Calque_1-2" data-name="Calque 1"><polyline class="cls-1" points="33.11 19.91 33.41 19.91 33.41 20.2 33.41 20.25 33.41 27.53 32.88 27.55 32.34 27.53 32.33 21.74 20.66 33.41 19.91 32.65 31.58 20.98 25.79 20.98 25.79 19.9 33.06 19.91"/><path class="cls-1" d="M26.66,53.31A26.66,26.66,0,1,1,53.31,26.66,26.68,26.68,0,0,1,26.66,53.31Zm0-53.12A26.47,26.47,0,1,0,53.12,26.66,26.51,26.51,0,0,0,26.66.19Z"/></g></g></svg>