<svg width="70" height="70" viewBox="0 0 70 70" fill="none" xmlns="http://www.w3.org/2000/svg">
<g clip-path="url(#clip0_602_295)">
<path d="M43.4756 26.143H43.8696V26.5238V26.5895V36.1486L43.1736 36.1749L42.4646 36.1486L42.4515 28.5459L27.1279 43.8695L26.1431 42.8716L41.4666 27.548H33.8639V26.1299L43.41 26.143" fill="#353535"/>
<path d="M35.0065 69.9995C28.0818 70.0021 21.3118 67.9508 15.553 64.1053C9.79417 60.2597 5.30525 54.7925 2.65406 48.3954C0.00286925 41.9983 -0.691484 34.9585 0.658833 28.1667C2.00915 21.3749 5.34347 15.1361 10.24 10.2395C15.1366 5.34298 21.3753 2.00866 28.1672 0.658345C34.959 -0.691972 41.9987 0.00238097 48.3959 2.65357C54.793 5.30476 60.2602 9.79368 64.1058 15.5525C67.9513 21.3113 70.0026 28.0813 70 35.006C69.9895 44.2837 66.2994 53.1783 59.7391 59.7386C53.1788 66.2989 44.2842 69.989 35.0065 69.9995ZM35.0065 0.248956C28.1317 0.246359 21.4104 2.28262 15.6929 6.1002C9.97545 9.91777 5.5185 15.3452 2.88581 21.696C0.253115 28.0468 -0.437065 35.0357 0.902561 41.7788C2.24219 48.5218 5.55144 54.7162 10.4118 59.5784C15.2721 64.4405 21.4652 67.7521 28.2078 69.0943C34.9504 70.4365 41.9395 69.7489 48.2913 67.1186C54.6431 64.4883 60.0722 60.0335 63.8919 54.3174C67.7117 48.6013 69.7505 41.8809 69.7505 35.006C69.7366 25.7944 66.072 16.9639 59.5597 10.449C53.0473 3.93421 44.2181 0.26632 35.0065 0.248956Z" fill="#353535"/>
</g>
<defs>
<clipPath id="clip0_602_295">
<rect width="70" height="70" fill="white"/>
</clipPath>
</defs>
</svg>
