<svg width="60" height="60" viewBox="0 0 60 60" fill="none" xmlns="http://www.w3.org/2000/svg">
<g clip-path="url(#clip0_576_95)">
<path d="M30.0056 8.38417e-06C24.0701 -0.00442772 18.2666 1.7516 13.3293 5.04596C8.39191 8.34032 4.54253 13.025 2.26804 18.5074C-0.00645744 23.9898 -0.603869 30.0237 0.55137 35.8457C1.70661 41.6677 4.5626 47.0162 8.75806 51.2148C12.9535 55.4134 18.3 58.2734 24.1211 59.433C29.9422 60.5926 35.9765 59.9997 41.4606 57.7293C46.9447 55.4589 51.6323 51.613 54.9304 46.6782C58.2284 41.7433 59.9888 35.9411 59.9888 30.0056C59.9828 22.0533 56.8227 14.4281 51.2017 8.80292C45.5807 3.17771 37.9579 0.0118841 30.0056 8.38417e-06ZM30.0056 59.7758C24.1144 59.778 18.355 58.0329 13.4557 54.7614C8.5565 51.4898 4.73761 46.8387 2.48214 41.3964C0.226671 35.9541 -0.364044 29.9652 0.784718 24.1871C1.93348 18.409 4.77011 13.1015 8.93578 8.93581C13.1015 4.77014 18.409 1.93351 24.1871 0.784748C29.9651 -0.364014 35.9541 0.226701 41.3964 2.48217C46.8387 4.73764 51.4898 8.55653 54.7613 13.4558C58.0329 18.355 59.7779 24.1145 59.7757 30.0056C59.7668 37.8984 56.6275 45.4654 51.0464 51.0464C45.4654 56.6275 37.8984 59.7669 30.0056 59.7758Z" fill="#353535"/>
<path d="M23.0541 20.8672C22.6106 20.8672 22.177 20.9987 21.8082 21.2451C21.4394 21.4915 21.152 21.8418 20.9822 22.2516C20.8125 22.6613 20.7681 23.1122 20.8546 23.5473C20.9411 23.9823 21.1547 24.3819 21.4684 24.6955C21.782 25.0091 22.1816 25.2227 22.6166 25.3092C23.0516 25.3958 23.5025 25.3514 23.9123 25.1816C24.3221 25.0119 24.6723 24.7245 24.9187 24.3557C25.1651 23.9869 25.2967 23.5533 25.2967 23.1098C25.2967 22.515 25.0604 21.9446 24.6398 21.524C24.2193 21.1035 23.6489 20.8672 23.0541 20.8672ZM24.9491 26.9333H21.1479V39.1329H24.9491V26.9333Z" fill="#353535"/>
<path d="M34.6023 26.6303C33.8827 26.6022 33.1689 26.7699 32.537 27.1154C31.9051 27.461 31.3788 27.9715 31.0142 28.5926V26.9331H27.3252V39.1327H31.1151V33.0777C31.1151 31.4855 31.4179 29.9381 33.3577 29.9381C35.2975 29.9381 35.32 31.7882 35.32 33.2011V39.1327H39.1099V32.4049C39.1099 29.1196 38.4035 26.5967 34.5575 26.5967L34.6023 26.6303Z" fill="#353535"/>
</g>
<defs>
<clipPath id="clip0_576_95">
<rect width="60" height="60" fill="white"/>
</clipPath>
</defs>
</svg>
