<svg width="71" height="71" viewBox="0 0 71 71" fill="none" xmlns="http://www.w3.org/2000/svg">
<circle cx="37" cy="32" r="7.5" stroke="#353535"/>
<line x1="23.6464" y1="45.6464" x2="31.6464" y2="37.6464" stroke="#353535"/>
<path d="M35.0197 70.0131C28.0949 70.0157 21.325 67.9645 15.5662 64.1189C9.80735 60.2734 5.31844 54.8062 2.66724 48.4091C0.0160528 42.0119 -0.6783 34.9722 0.672017 28.1804C2.02233 21.3885 5.35665 15.1497 10.2532 10.2532C15.1497 5.35665 21.3885 2.02233 28.1804 0.672017C34.9722 -0.6783 42.0119 0.0160528 48.4091 2.66724C54.8062 5.31844 60.2734 9.80735 64.1189 15.5662C67.9645 21.325 70.0157 28.0949 70.0131 35.0197C70.0027 44.2973 66.3126 53.192 59.7523 59.7523C53.192 66.3126 44.2973 70.0027 35.0197 70.0131ZM35.0197 0.262628C28.1448 0.260031 21.4236 2.29629 15.7061 6.11387C9.98863 9.93145 5.53169 15.3589 2.89899 21.7096C0.266298 28.0604 -0.423882 35.0493 0.915745 41.7924C2.25537 48.5355 5.56463 54.7298 10.425 59.592C15.2853 64.4542 21.4784 67.7658 28.221 69.108C34.9636 70.4501 41.9527 69.7626 48.3045 67.1323C54.6563 64.502 60.0854 60.0471 63.9051 54.3311C67.7249 48.615 69.7637 41.8946 69.7637 35.0197C69.7498 25.8081 66.0852 16.9775 59.5728 10.4627C53.0605 3.94788 44.2313 0.279992 35.0197 0.262628Z" fill="#353535"/>
</svg>
