<svg width="60" height="60" viewBox="0 0 60 60" fill="none" xmlns="http://www.w3.org/2000/svg">
<path d="M40.2173 29.7521L40.4536 29.9884L40.2173 30.2248L40.1722 30.2585L34.3883 36.0537L33.9494 35.6486L33.5331 35.2097L38.1355 30.5961H19.5684V29.3808H38.1467L33.5443 24.7784L34.3996 23.9232L40.1835 29.7184" fill="#353535"/>
<path d="M60 29.9887C60.0022 35.9231 58.2444 41.7249 54.9488 46.6601C51.6532 51.5953 46.9679 55.4422 41.4857 57.7142C36.0035 59.9862 29.9705 60.5813 24.1501 59.4241C18.3296 58.2669 12.9831 55.4094 8.78681 51.2132C4.59056 47.0169 1.7331 41.6704 0.575906 35.8499C-0.581291 30.0295 0.013757 23.9965 2.28578 18.5143C4.5578 13.0321 8.40472 8.34681 13.3399 5.05122C18.2751 1.75564 24.0769 -0.00222421 30.0113 3.57628e-06C37.962 0.0089376 45.5846 3.17133 51.2066 8.79337C56.8287 14.4154 59.9911 22.038 60 29.9887ZM0.225068 29.9887C0.222842 35.8804 1.96788 41.6403 5.23947 46.5401C8.51107 51.4399 13.1623 55.2594 18.6048 57.5156C24.0473 59.7718 30.0367 60.3633 35.8154 59.2152C41.594 58.0672 46.9025 55.2312 51.0693 51.066C55.2361 46.9008 58.0741 41.5934 59.2243 35.8151C60.3745 30.0369 59.7853 24.0473 57.5312 18.6039C55.2771 13.1605 51.4593 8.50791 46.5607 5.23447C41.6622 1.96102 35.9029 0.21381 30.0113 0.21381C22.1171 0.225708 14.5495 3.36616 8.96636 8.94715C3.38326 14.5281 0.239948 22.0946 0.225068 29.9887Z" fill="#353535"/>
</svg>
