<svg xmlns="http://www.w3.org/2000/svg" viewBox="0 0 72 72"><defs><style>.cls-1{fill:#d65d38;}</style></defs><g id="Calque_2" data-name="Calque 2"><g id="Calque_1-2" data-name="Calque 1"><path class="cls-1" d="M72,35H41L69.66,23.19l-.76-1.85L40.24,33.18,62.16,11.25,60.75,9.84,38.86,31.74,50.77,3.16l-1.84-.77L37,31V0H35V31L23.18,2.35l-1.84.76L33.17,31.77,11.25,9.84,9.84,11.25l21.9,21.9L3.16,21.23l-.77,1.84L31,35H0v2H31L2.35,48.82l.76,1.85L31.76,38.83,9.84,60.76l1.41,1.4L33.14,40.27,21.23,68.85l1.84.77L35,41V72h2V41L48.82,69.66l1.85-.76L38.83,40.24,60.75,62.16l1.41-1.4L40.27,38.86,68.85,50.77l.77-1.84L41,37H72Zm-.25,1.74h-32l1.15.48,28.4,11.84-.58,1.38L40.37,38.63l-1.17-.48.9.89L61.81,60.76l-1.06,1.05L39,40.07l-.89-.89.48,1.16L50.34,68.76,49,69.33,37.23,40.94l-.48-1.17v32H35.26v-32l-.48,1.15L22.94,69.29l-1.38-.58L33.38,40.37l.48-1.17-.89.9L11.25,61.81,10.2,60.76,31.94,39l.89-.89-1.16.48L3.25,50.34,2.67,49l28.4-11.73,1.17-.48H.25V35.26h32l-1.15-.48L2.72,22.94l.57-1.38L31.64,33.38l1.17.48-.9-.89L10.2,11.25l1.05-1.05L33,31.94l.88.89-.47-1.16L21.67,3.25l1.38-.57L34.78,31.07l.48,1.17V.25h1.49v32l.48-1.15L49.07,2.72l1.38.57L38.63,31.64l-.48,1.17.89-.9L60.75,10.2l1.06,1.05L40.06,33l-.88.89,1.16-.48L68.76,21.67l.57,1.38L40.93,34.78l-1.16.48h32Z"/></g></g></svg>