<svg width="12" height="13" viewBox="0 0 12 13" fill="none" xmlns="http://www.w3.org/2000/svg">
<path d="M11.432 8.88065C11.4992 9.48174 11.345 10.0868 10.999 10.5792C10.9748 11.999 10.103 13 8.17371 13H7.61788C5.04918 13 4.28578 12.0107 3.17297 11.9855C3.12819 12.1597 3.02784 12.3138 2.88761 12.4238C2.74739 12.5339 2.57521 12.5935 2.39803 12.5935H0.800304C0.588602 12.5937 0.385476 12.5085 0.235456 12.3568C0.0854358 12.2051 0.000763111 11.9991 0 11.7841L0 5.68849C-2.73084e-08 5.58175 0.0207046 5.47607 0.0609308 5.37746C0.101157 5.27886 0.160116 5.18928 0.234439 5.11383C0.308761 5.03839 0.396991 4.97856 0.494085 4.93777C0.591179 4.89698 0.695234 4.87602 0.800304 4.8761H3.26926C3.74782 4.4456 4.41955 3.33859 4.98807 2.75814C5.32998 2.41081 5.24176 0 6.78241 0C8.22388 0 9.16372 0.811219 9.16372 2.65974C9.16324 3.06427 9.08834 3.46514 8.94288 3.84172H9.85447C11.0699 3.84172 12 4.89601 12 6.01532C12.0027 6.46169 11.8829 6.9 11.654 7.28105C11.768 7.82416 11.6894 8.39073 11.432 8.88065ZM10.2437 6.98175C10.4795 6.98175 10.8024 6.50146 10.8001 6.02118C10.7978 5.54089 10.3826 5.0606 9.85447 5.0606H7.25463C7.25463 4.10002 7.96384 3.65488 7.96384 2.65916C7.96384 2.05587 7.96384 1.21829 6.78241 1.21829C6.30961 1.69858 6.54543 2.8993 5.8368 3.61973C5.17257 4.29507 4.18199 6.09498 3.47279 6.09498H3.20006V10.8229C4.54063 10.8229 5.70015 11.7835 7.49103 11.7835H8.43664C9.32459 11.7835 9.9571 11.3489 9.76279 10.1101C10.1428 9.90273 10.4253 9.18464 10.1116 8.64578C10.6525 8.13035 10.5804 7.35134 10.2437 6.98175Z" fill="#FFFAF4"/>
</svg>
